<?xml version="1.0"?>
<svg version="1.1" xmlns="http://www.w3.org/2000/svg" width="400" height="200" style="border: dashed 2px #aaa"><path fill="#f04a58" d="M16.08544921875,96.600830078125q-0.0380859375-0.504638671875,0.085693359375-0.9521484375t0.466552734375-0.74267578125t1.16162109375-0.295166015625q0.1904296875,0,0.466552734375,0.0380859375t0.55224609375,0.123779296875t0.447509765625,0.238037109375t0.17138671875,0.4189453125q0,0.70458984375,0.047607421875,1.856689453125t0.123779296875,2.3994140625t0.142822265625,2.4375t0.123779296875,1.932861328125q1.4853515625-0.076171875,2.98974609375-0.076171875t2.970703125-0.076171875l2.6279296875-0.076171875l0-1.88525390625q0-3.1611328125-0.123779296875-6.331787109375t-0.428466796875-6.331787109375q0-0.228515625,0.1904296875-0.371337890625t0.447509765625-0.218994140625t0.533203125-0.09521484375t0.428466796875-0.01904296875q0.43798828125,0,0.942626953125,0.13330078125t0.580810546875,0.5712890625l0.1142578125,0.81884765625q0.47607421875,3.427734375,0.6474609375,6.779296875t0.24755859375,6.703125q0.228515625,0.0380859375,0.485595703125,0.123779296875t0.523681640625,0.161865234375q0.1904296875,0.076171875,0.542724609375,0.228515625t0.352294921875,0.47607421875q0,0.3046875-0.2666015625,0.47607421875t-0.599853515625,0.257080078125t-0.6474609375,0.104736328125t-0.390380859375,0.01904296875q0.0380859375,1.4091796875,0.0380859375,2.808837890625l0,2.808837890625l0,6.15087890625l0,3.427734375q0,0.228515625-0.218994140625,0.409423828125t-0.523681640625,0.295166015625t-0.637939453125,0.15234375t-0.599853515625,0.0380859375t-0.62841796875-0.0380859375t-0.6474609375-0.15234375t-0.504638671875-0.28564453125t-0.218994140625-0.4189453125l0-0.81884765625q0.076171875-3.6181640625,0.17138671875-7.169677734375t0.1904296875-7.131591796875q-2.07568359375,0.076171875-4.218017578125,0.09521484375t-4.256103515625,0.09521484375q0.228515625,2.68505859375,0.523681640625,5.360595703125t0.618896484375,5.360595703125q0,0.228515625-0.218994140625,0.409423828125t-0.51416015625,0.295166015625t-0.62841796875,0.15234375t-0.599853515625,0.0380859375q-0.55224609375,0-1.209228515625-0.1904296875t-0.733154296875-0.70458984375q-0.228515625-2.0185546875-0.428466796875-4.4560546875t-0.352294921875-4.979736328125t-0.238037109375-4.979736328125t-0.085693359375-4.41796875q0-0.47607421875-0.0380859375-0.980712890625z M37.845278320312,112.39697265625q0-1.294921875,0.352294921875-2.49462890625t1.056884765625-2.142333984375t1.761474609375-1.50439453125t2.447021484375-0.561767578125q0.85693359375,0,1.894775390625,0.257080078125t1.951904296875,0.76171875t1.5234375,1.285400390625t0.609375,1.7900390625q0,0.47607421875-0.161865234375,0.7236328125t-0.656982421875,0.24755859375l-0.20947265625-0.0380859375q0.55224609375,1.4853515625,0.9521484375,3.046875t0.78076171875,3.123046875q0.15234375,0.3046875,0.228515625,0.542724609375t0.076171875,0.466552734375q0,0.3046875-0.17138671875,0.504638671875t-0.447509765625,0.295166015625t-0.5712890625,0.13330078125t-0.523681640625,0.0380859375q-0.81884765625,0-1.228271484375-0.28564453125t-0.59033203125-0.78076171875t-0.218994140625-1.114013671875t-0.15234375-1.247314453125q-0.228515625,0.74267578125-0.599853515625,1.447265625t-0.8759765625,1.266357421875t-1.190185546875,0.89501953125t-1.54248046875,0.333251953125q-1.2568359375,0-2.11376953125-0.7236328125t-1.380615234375-1.780517578125t-0.76171875-2.256591796875t-0.238037109375-2.22802734375z M40.549379882812,112.13037109375q0,0.70458984375,0.09521484375,1.4853515625t0.314208984375,1.54248046875t0.561767578125,1.437744140625t0.85693359375,1.190185546875q0.93310546875-1.00927734375,1.380615234375-2.45654296875t0.7998046875-2.789794921875t0.7998046875-2.30419921875t1.380615234375-0.961669921875q0.59033203125,0,0.990234375,0.20947265625q-0.1904296875-0.47607421875-0.62841796875-0.923583984375t-0.980712890625-0.81884765625t-1.12353515625-0.609375t-1.094970703125-0.238037109375q-0.15234375,0-0.352294921875,0.047607421875t-0.314208984375,0.009521484375q-0.78076171875,0.228515625-1.285400390625,0.790283203125t-0.81884765625,1.323486328125t-0.447509765625,1.5615234375t-0.13330078125,1.50439453125z M54.349248046875,107.06494140625q0-0.78076171875,0.276123046875-1.31396484375t1.171142578125-0.533203125q0.3427734375,0,0.85693359375,0.104736328125t0.59033203125,0.523681640625q0.1904296875,1.12353515625,0.20947265625,2.4375t0.13330078125,2.4755859375q0.43798828125-0.85693359375,1.12353515625-1.84716796875t1.5615234375-1.828125t1.904296875-1.39013671875t2.0947265625-0.55224609375q0.076171875,0,0.28564453125,0.05712890625t0.390380859375,0.161865234375t0.218994140625,0.238037109375t-0.20947265625,0.24755859375q-0.076171875,0.228515625-0.32373046875,0.276123046875t-0.43798828125,0.047607421875q-0.1142578125,0-0.36181640625-0.09521484375q-1.4091796875,0.74267578125-2.3994140625,2.0185546875t-1.61865234375,2.827880859375t-0.9140625,3.275390625t-0.28564453125,3.361083984375q0,0.81884765625-0.371337890625,0.990234375t-1.190185546875,0.17138671875q-0.43798828125,0-0.923583984375-0.09521484375t-0.676025390625-0.609375q-0.3427734375-1.08544921875-0.561767578125-2.49462890625t-0.333251953125-2.904052734375t-0.161865234375-2.942138671875t-0.047607421875-2.60888671875z M67.882514648437,107.48388671875q0-0.78076171875,0.45703125-1.342529296875t1.114013671875-0.9140625t1.437744140625-0.523681640625t1.447265625-0.17138671875q0.51416015625,0,1.37109375,0.15234375t1.67578125,0.45703125t1.418701171875,0.7998046875t0.599853515625,1.16162109375q0,0.3046875-0.228515625,0.542724609375t-0.47607421875,0.238037109375q-0.51416015625,0-0.93310546875-0.333251953125t-0.866455078125-0.70458984375t-0.980712890625-0.70458984375t-1.19970703125-0.333251953125t-1.209228515625,0.428466796875t-0.542724609375,1.133056640625q0,1.16162109375,0.81884765625,2.275634765625t1.799560546875,2.34228515625t1.799560546875,2.580322265625t0.81884765625,2.98974609375q0,0.70458984375-0.295166015625,1.190185546875t-0.78076171875,0.790283203125t-1.094970703125,0.466552734375t-1.1806640625,0.161865234375q-0.62841796875,0-1.46630859375-0.295166015625t-1.58056640625-0.78076171875t-1.247314453125-1.133056640625t-0.504638671875-1.35205078125q0-0.3427734375,0.485595703125-0.43798828125t0.714111328125-0.09521484375q0.1142578125,0,0.352294921875,0.076171875t0.466552734375,0.17138671875t0.409423828125,0.20947265625t0.142822265625,0.24755859375q0.1904296875,0.228515625,0.580810546875,0.676025390625t0.78076171875,0.7236328125t0.685546875,0.199951171875t0.295166015625-0.85693359375q0-1.4853515625-0.7998046875-2.732666015625t-1.742431640625-2.4375t-1.742431640625-2.361328125t-0.7998046875-2.504150390625z M81.3015234375,114.47265625l0-1.7900390625q0-0.97119140625,0.047607421875-2.751708984375t0.123779296875-3.90380859375t0.20947265625-4.427490234375t0.3046875-4.351318359375t0.409423828125-3.665771484375t0.542724609375-2.3994140625q0.1904296875-0.43798828125,0.62841796875-0.55224609375t0.85693359375-0.1142578125q0.66650390625,0,1.171142578125,0.295166015625t0.504638671875,1.075927734375l-0.3427734375,0.380859375q-0.66650390625,4.39892578125-0.85693359375,8.8359375t-0.2666015625,8.8740234375q0.47607421875-0.74267578125,1.075927734375-1.456787109375t1.3330078125-1.266357421875t1.58056640625-0.885498046875t1.856689453125-0.333251953125q1.294921875,0,2.142333984375,0.78076171875t1.399658203125,2.028076171875t0.81884765625,2.789794921875t0.409423828125,3.0849609375t0.199951171875,2.923095703125t0.17138671875,2.294677734375q-0.36181640625,0.4951171875-1.06640625,0.4951171875l-0.05712890625,0q-0.3046875,0-0.66650390625-0.076171875t-0.47607421875-0.380859375l0.0380859375,0.0380859375q-0.2666015625-0.59033203125-0.36181640625-1.704345703125t-0.15234375-2.45654296875t-0.199951171875-2.751708984375t-0.428466796875-2.5517578125t-0.837890625-1.88525390625t-1.4853515625-0.78076171875l-0.1142578125,0q-1.12353515625,0-1.88525390625,0.685546875q-0.7998046875,0.7236328125-1.294921875,1.904296875t-0.76171875,2.6279296875t-0.409423828125,2.789794921875t-0.218994140625,2.4375t-0.1904296875,1.609130859375q-0.1142578125,0.43798828125-0.676025390625,0.580810546875t-0.961669921875,0.142822265625q-0.93310546875,0-1.5234375-0.533203125q-0.43798828125-1.04736328125-0.51416015625-2.60888671875t-0.076171875-3.046875z M105.77821289062,92.40185546875q0-0.2666015625,0.371337890625-0.409423828125t0.485595703125-0.142822265625l0.70458984375-0.1142578125q0.70458984375-0.1142578125,1.42822265625-0.199951171875t1.4091796875-0.161865234375q2.41845703125-0.3046875,4.8369140625-0.599853515625t4.875-0.295166015625q0.1904296875,0,0.523681640625,0.01904296875t0.66650390625,0.104736328125t0.5712890625,0.238037109375t0.238037109375,0.4189453125q0,0.1904296875-0.180908203125,0.333251953125t-0.428466796875,0.218994140625t-0.504638671875,0.09521484375t-0.409423828125,0.01904296875l-0.333251953125,0t-0.333251953125-0.076171875q-1.00927734375,0-1.989990234375,0.09521484375t-1.989990234375,0.17138671875q0.2666015625,0.3046875,0.28564453125,0.85693359375t0.0380859375,0.9521484375q0,6.7412109375,0.09521484375,13.40625t0.17138671875,13.46337890625l0,0.0380859375q-0.62841796875,0.55224609375-1.075927734375,0.70458984375t-0.904541015625,0.15234375q-0.43798828125,0-0.885498046875-0.161865234375t-1.075927734375-0.695068359375l0-0.0380859375l0.15234375-14.94873046875q0-1.4853515625-0.0380859375-3.275390625t-0.0380859375-3.627685546875t0.05712890625-3.551513671875t0.3046875-2.98974609375q-1.12353515625,0.1142578125-2.38037109375,0.3427734375q-1.08544921875,0.1904296875-2.07568359375,0.1904296875l-0.3427734375,0q-0.076171875,0-0.447509765625,0.01904296875t-0.76171875-0.01904296875t-0.70458984375-0.15234375t-0.314208984375-0.380859375z M124.60542480469,114.47265625l0-1.7900390625q0-0.97119140625,0.047607421875-2.751708984375t0.123779296875-3.90380859375t0.20947265625-4.427490234375t0.3046875-4.351318359375t0.409423828125-3.665771484375t0.542724609375-2.3994140625q0.1904296875-0.43798828125,0.62841796875-0.55224609375t0.85693359375-0.1142578125q0.66650390625,0,1.171142578125,0.295166015625t0.504638671875,1.075927734375l-0.3427734375,0.380859375q-0.66650390625,4.39892578125-0.85693359375,8.8359375t-0.2666015625,8.8740234375q0.47607421875-0.74267578125,1.075927734375-1.456787109375t1.3330078125-1.266357421875t1.58056640625-0.885498046875t1.856689453125-0.333251953125q1.294921875,0,2.142333984375,0.78076171875t1.399658203125,2.028076171875t0.81884765625,2.789794921875t0.409423828125,3.0849609375t0.199951171875,2.923095703125t0.17138671875,2.294677734375q-0.36181640625,0.4951171875-1.06640625,0.4951171875l-0.05712890625,0q-0.3046875,0-0.66650390625-0.076171875t-0.47607421875-0.380859375l0.0380859375,0.0380859375q-0.2666015625-0.59033203125-0.36181640625-1.704345703125t-0.15234375-2.45654296875t-0.199951171875-2.751708984375t-0.428466796875-2.5517578125t-0.837890625-1.88525390625t-1.4853515625-0.78076171875l-0.1142578125,0q-1.12353515625,0-1.88525390625,0.685546875q-0.7998046875,0.7236328125-1.294921875,1.904296875t-0.76171875,2.6279296875t-0.409423828125,2.789794921875t-0.218994140625,2.4375t-0.1904296875,1.609130859375q-0.1142578125,0.43798828125-0.676025390625,0.580810546875t-0.961669921875,0.142822265625q-0.93310546875,0-1.5234375-0.533203125q-0.43798828125-1.04736328125-0.51416015625-2.60888671875t-0.076171875-3.046875z M142.82326171875,112.39697265625q0-1.294921875,0.352294921875-2.49462890625t1.056884765625-2.142333984375t1.761474609375-1.50439453125t2.447021484375-0.561767578125q0.85693359375,0,1.894775390625,0.257080078125t1.951904296875,0.76171875t1.5234375,1.285400390625t0.609375,1.7900390625q0,0.47607421875-0.161865234375,0.7236328125t-0.656982421875,0.24755859375l-0.20947265625-0.0380859375q0.55224609375,1.4853515625,0.9521484375,3.046875t0.78076171875,3.123046875q0.15234375,0.3046875,0.228515625,0.542724609375t0.076171875,0.466552734375q0,0.3046875-0.17138671875,0.504638671875t-0.447509765625,0.295166015625t-0.5712890625,0.13330078125t-0.523681640625,0.0380859375q-0.81884765625,0-1.228271484375-0.28564453125t-0.59033203125-0.78076171875t-0.218994140625-1.114013671875t-0.15234375-1.247314453125q-0.228515625,0.74267578125-0.599853515625,1.447265625t-0.8759765625,1.266357421875t-1.190185546875,0.89501953125t-1.54248046875,0.333251953125q-1.2568359375,0-2.11376953125-0.7236328125t-1.380615234375-1.780517578125t-0.76171875-2.256591796875t-0.238037109375-2.22802734375z M145.52736328125,112.13037109375q0,0.70458984375,0.09521484375,1.4853515625t0.314208984375,1.54248046875t0.561767578125,1.437744140625t0.85693359375,1.190185546875q0.93310546875-1.00927734375,1.380615234375-2.45654296875t0.7998046875-2.789794921875t0.7998046875-2.30419921875t1.380615234375-0.961669921875q0.59033203125,0,0.990234375,0.20947265625q-0.1904296875-0.47607421875-0.62841796875-0.923583984375t-0.980712890625-0.81884765625t-1.12353515625-0.609375t-1.094970703125-0.238037109375q-0.15234375,0-0.352294921875,0.047607421875t-0.314208984375,0.009521484375q-0.78076171875,0.228515625-1.285400390625,0.790283203125t-0.81884765625,1.323486328125t-0.447509765625,1.5615234375t-0.13330078125,1.50439453125z M159.32723144531,120.12841796875l0.39990234375-0.47607421875q-0.076171875-3.19921875-0.17138671875-6.37939453125t-0.09521484375-6.322265625q0-3.90380859375,0.466552734375-7.550537109375t0.923583984375-7.474365234375q0.0380859375-0.228515625,0.218994140625-0.371337890625t0.447509765625-0.238037109375t0.542724609375-0.13330078125t0.504638671875-0.0380859375q0.3046875,0,0.76171875,0.1142578125t0.9140625,0.66650390625q0,0.1904296875,0.028564453125,0.333251953125t0.028564453125,0.333251953125q0,1.447265625-0.390380859375,3.10400390625t-0.523681640625,3.18017578125q-0.15234375,1.8662109375-0.20947265625,3.6943359375t-0.05712890625,3.71337890625l0.0380859375,1.67578125q0.380859375-0.47607421875,1.08544921875-1.21875t1.5234375-1.437744140625t1.6376953125-1.190185546875t1.4853515625-0.4951171875q1.00927734375,0,1.399658203125,0.5712890625t0.390380859375,1.50439453125q0,0.85693359375-0.371337890625,1.7900390625t-0.97119140625,1.818603515625t-1.361572265625,1.590087890625t-1.50439453125,1.04736328125q1.00927734375,1.2568359375,2.066162109375,2.3994140625t2.313720703125,2.15185546875l0,0.43798828125q-0.0380859375,0.1904296875-0.238037109375,0.28564453125t-0.43798828125,0.15234375t-0.466552734375,0.085693359375t-0.380859375,0.028564453125q-0.93310546875,0-1.799560546875-0.55224609375t-1.61865234375-1.35205078125t-1.418701171875-1.69482421875t-1.21875-1.5615234375q0.1142578125,2.18994140625,0.257080078125,4.370361328125t0.142822265625,4.370361328125q0,0.2666015625-0.238037109375,0.447509765625t-0.55224609375,0.276123046875t-0.637939453125,0.13330078125t-0.533203125,0.0380859375q-1.12353515625,0-1.590087890625-0.409423828125t-0.790283203125-1.418701171875z M163.23104003906,111.1591796875q0.47607421875,0,1.133056640625-0.409423828125t1.361572265625-1.018798828125t1.31396484375-1.285400390625t0.980712890625-1.285400390625t0.371337890625-0.980712890625t-0.51416015625-0.333251953125q-0.1904296875,0-0.78076171875,0.55224609375t-1.31396484375,1.35205078125t-1.447265625,1.73291015625t-1.1044921875,1.67578125z M173.96499023437,110.72119140625q0-0.380859375,0.085693359375-1.00927734375t0.199951171875-1.247314453125t0.2666015625-1.152099609375t0.36181640625-0.685546875q0.15234375-0.15234375,0.523681640625-0.3046875t0.78076171875-0.218994140625t0.76171875,0.05712890625t0.428466796875,0.504638671875q-0.2666015625,0.3427734375-0.485595703125,1.171142578125t-0.333251953125,1.837646484375q-0.09521484375,0.85693359375-0.09521484375,1.77099609375l0,0.32373046875q0.01904296875,1.06640625,0.1904296875,1.96142578125t0.523681640625,1.475830078125t0.980712890625,0.580810546875q1.3330078125,0,2.4375-1.228271484375t1.96142578125-2.999267578125t1.50439453125-3.760986328125t1.1044921875-3.475341796875q0.1142578125-0.43798828125,0.542724609375-0.59033203125t0.923583984375-0.104736328125t0.885498046875,0.238037109375t0.466552734375,0.45703125q-0.380859375,3.19921875-0.599853515625,6.3984375t-0.218994140625,6.4365234375q0,0.62841796875,0.05712890625,1.152099609375t-0.05712890625,0.89501953125t-0.504638671875,0.59033203125t-1.247314453125,0.218994140625q-0.1904296875,0-0.485595703125-0.0380859375t-0.609375-0.123779296875t-0.533203125-0.257080078125t-0.218994140625-0.39990234375q0-1.4091796875,0.104736328125-2.89453125t0.295166015625-2.87548828125q-0.51416015625,0.74267578125-1.133056640625,1.475830078125t-1.361572265625,1.323486328125t-1.599609375,0.942626953125t-1.84716796875,0.352294921875q-1.4091796875,0-2.218505859375-0.66650390625t-1.21875-1.666259765625t-0.51416015625-2.180419921875t-0.104736328125-2.28515625z M191.87813964844,107.06494140625q0-0.78076171875,0.276123046875-1.31396484375t1.171142578125-0.533203125q0.3427734375,0,0.85693359375,0.104736328125t0.59033203125,0.523681640625q0.1904296875,1.12353515625,0.20947265625,2.4375t0.13330078125,2.4755859375q0.43798828125-0.85693359375,1.12353515625-1.84716796875t1.5615234375-1.828125t1.904296875-1.39013671875t2.0947265625-0.55224609375q0.076171875,0,0.28564453125,0.05712890625t0.390380859375,0.161865234375t0.218994140625,0.238037109375t-0.20947265625,0.24755859375q-0.076171875,0.228515625-0.32373046875,0.276123046875t-0.43798828125,0.047607421875q-0.1142578125,0-0.36181640625-0.09521484375q-1.4091796875,0.74267578125-2.3994140625,2.0185546875t-1.61865234375,2.827880859375t-0.9140625,3.275390625t-0.28564453125,3.361083984375q0,0.81884765625-0.371337890625,0.990234375t-1.190185546875,0.17138671875q-0.43798828125,0-0.923583984375-0.09521484375t-0.676025390625-0.609375q-0.3427734375-1.08544921875-0.561767578125-2.49462890625t-0.333251953125-2.904052734375t-0.161865234375-2.942138671875t-0.047607421875-2.60888671875z"/><path fill="#" d=""/></svg>
